<?xml version="1.0" encoding="UTF-8"?>
<svg width="32" height="32" viewBox="0 0 32 32" fill="none" xmlns="http://www.w3.org/2000/svg">
  <!-- Square background -->
  <rect width="32" height="32" rx="4" fill="#000000"/>
  <!-- Number 8 -->
  <path d="M16 8C12.6863 8 10 10.6863 10 14C10 15.5913 10.6321 17.0374 11.6667 18.0001C10.6321 18.9627 10 20.4087 10 22C10 25.3137 12.6863 28 16 28C19.3137 28 22 25.3137 22 22C22 20.4087 21.3679 18.9627 20.3333 18.0001C21.3679 17.0374 22 15.5913 22 14C22 10.6863 19.3137 8 16 8ZM16 10C18.7614 10 21 12.2386 21 14C21 15.7614 19.7614 17 18 17H14C12.2386 17 11 15.7614 11 14C11 12.2386 13.2386 10 16 10ZM16 19C17.7614 19 19 20.2386 19 22C19 23.7614 17.7614 25 16 25C14.2386 25 13 23.7614 13 22C13 20.2386 14.2386 19 16 19Z" fill="#FFFFFF"/>
</svg> 